# xmcd
#
# Track frame offsets: 
#        150
#        19255
#        41222
#        65235
#        86390
#        106282
#        126970
#        152662
#        173300
#        193897
#        220060
#        238705
#
# Disc length: 3453 seconds
#
# Revision: 0
# Processed by: cddbd v1.5.2PL0 Copyright (c) Steve Scherf et al.
# Submitted via: ExactAudioCopy v0.99pb4
#
DISCID=a30d7b0c
DTITLE=Various Artist - Soul Classics Of The 90's
DYEAR=2000
DGENRE=R&B
TTITLE0=R. Kelly - Bump N' Grind
TTITLE1=SWV - Weak
TTITLE2=Freddie Jackson - Love Me Down
TTITLE3=Monica - Like This And Like That
TTITLE4=Deborah Cox - Sentimental
TTITLE5=Arrested Development - Tennessee
TTITLE6=Snap! - The Power
TTITLE7=Calloway - I Wanna Be Rich
TTITLE8=Rome - I Belong To You (Everytime I See Your Face)
TTITLE9=Hi-Five - I Like The Way (The Kissing Game)
TTITLE10=Black Box - Everybody Everybody (Le Freak Mix)
TTITLE11=Jermaine Jackson - Don't Take It Personal
EXTD=
EXTT0=
EXTT1=
EXTT2=
EXTT3=
EXTT4=
EXTT5=
EXTT6=
EXTT7=
EXTT8=
EXTT9=
EXTT10=
EXTT11=
PLAYORDER=
